<svg width="61" height="62" viewBox="0 0 61 62" fill="none" xmlns="http://www.w3.org/2000/svg">
<circle cx="30.625" cy="31" r="30" fill="#FD4C5C" stroke="white" stroke-width="0.25"/>
<path d="M31.625 45H29.625C29.0947 44.9995 28.5863 44.7886 28.2114 44.4136C27.8364 44.0387 27.6255 43.5303 27.625 43V29H22.625C22.0947 28.9995 21.5863 28.7886 21.2114 28.4136C20.8364 28.0387 20.6255 27.5303 20.625 27V25C20.6255 24.4697 20.8364 23.9613 21.2114 23.5864C21.5863 23.2114 22.0947 23.0005 22.625 23H27.625V19C27.6255 18.4697 27.8364 17.9613 28.2114 17.5864C28.5863 17.2114 29.0947 17.0005 29.625 17H31.625C32.1553 17.0005 32.6637 17.2114 33.0386 17.5864C33.4136 17.9613 33.6245 18.4697 33.625 19V23H38.625C39.1553 23.0005 39.6637 23.2114 40.0386 23.5864C40.4136 23.9613 40.6245 24.4697 40.625 25V27C40.6245 27.5303 40.4136 28.0387 40.0386 28.4136C39.6637 28.7886 39.1553 28.9995 38.625 29H33.625V43C33.6245 43.5303 33.4136 44.0387 33.0386 44.4136C32.6637 44.7886 32.1553 44.9995 31.625 45ZM22.625 25V27H29.625V43H31.625V27H38.625V25H31.625V19H29.625V25H22.625Z" fill="white"/>
</svg>
