<svg width="61" height="62" viewBox="0 0 61 62" fill="none" xmlns="http://www.w3.org/2000/svg">
<circle cx="30.625" cy="31" r="30" fill="#FFC83E" stroke="white" stroke-width="0.25"/>
<path d="M27.664 24.2755C21.8376 24.8716 17.5056 27.1926 17.5056 29.9747C17.5056 33.2019 23.3638 35.817 30.5812 35.817C37.7987 35.817 43.6569 33.2019 43.6569 29.9747C43.6569 27.1926 39.3169 24.8716 33.4984 24.2755" stroke="white" stroke-width="1.5" stroke-linecap="round" stroke-linejoin="round"/>
<path d="M17.5056 33.2177C17.5056 34.3623 17.8076 36.0395 19.0953 36.9457C20.0015 37.5895 21.8456 36.8105 23.2286 37.2477C24.3574 37.6134 25.2874 39.3621 26.6466 39.5528C27.8627 39.7198 29.2617 38.3049 30.621 38.3049C31.9802 38.3049 33.3474 39.7198 34.5953 39.5528C35.9545 39.3621 36.8925 37.6134 38.0212 37.2557C39.4043 36.8105 41.2484 37.5895 42.1546 36.9457C43.4264 36.0395 43.7443 34.3623 43.7443 33.2177" stroke="white" stroke-width="1.5" stroke-linecap="round" stroke-linejoin="round"/>
<path d="M17.5056 29.9746V40.6577C17.5056 43.8849 23.3638 46.5 30.5812 46.5C37.7987 46.5 43.6569 43.8849 43.6569 40.6577V29.9746" stroke="white" stroke-width="1.5" stroke-linecap="round" stroke-linejoin="round"/>
<path d="M27.6636 23.4724V29.9745C27.6636 30.6899 28.9911 31.3019 30.5808 31.3019C32.1705 31.3019 33.498 30.7137 33.498 29.9983V23.4724" stroke="white" stroke-width="1.5" stroke-linecap="round" stroke-linejoin="round"/>
<path d="M30.5808 24.7759C32.1919 24.7759 33.498 24.1922 33.498 23.4723C33.498 22.7523 32.1919 22.1687 30.5808 22.1687C28.9697 22.1687 27.6636 22.7523 27.6636 23.4723C27.6636 24.1922 28.9697 24.7759 30.5808 24.7759Z" stroke="white" stroke-width="1.5" stroke-linecap="round" stroke-linejoin="round"/>
<path d="M30.5807 23.4726C30.5807 22.7572 29.7461 21.8033 29.7461 21.1992M29.7858 21.1992C29.5792 20.5872 28.3948 20.6428 28.3948 18.9974C28.3948 17.3521 29.5156 16.8513 29.5156 15.5C30.0542 15.7747 30.5032 16.1973 30.8101 16.7183C31.1171 17.2392 31.2691 17.8368 31.2484 18.441C31.2704 18.9891 31.1466 19.5331 30.8897 20.0177C30.6327 20.5023 30.2518 20.91 29.7858 21.1992Z" stroke="white" stroke-width="1.5" stroke-linecap="round" stroke-linejoin="round"/>
</svg>
