<svg xmlns="http://www.w3.org/2000/svg" version="1.1" xmlns:xlink="http://www.w3.org/1999/xlink" xmlns:svgjs="http://svgjs.com/svgjs" width="70" height="44"><svg width="70" height="44" viewBox="0 0 70 44" fill="none" xmlns="http://www.w3.org/2000/svg">
<g clip-path="url(#clip0_36_175)">
<path d="M1.53735 38.3239V39.7032C1.53632 39.9473 1.58682 40.1888 1.68556 40.4121C1.77986 40.6304 1.91621 40.828 2.08683 40.9937C2.25769 41.1582 2.45844 41.2884 2.67825 41.3775C2.90965 41.4719 3.15749 41.5194 3.4074 41.5173H9.29787C9.39988 41.5135 9.50158 41.5308 9.59661 41.568C9.69164 41.6053 9.77795 41.6618 9.85013 41.734C9.92232 41.8062 9.97882 41.8925 10.0161 41.9875C10.0534 42.0826 10.0707 42.1843 10.0669 42.2863C10.0685 42.3865 10.0502 42.486 10.013 42.579C9.97575 42.672 9.9204 42.7567 9.85014 42.8281C9.77927 42.9025 9.69353 42.9611 9.59849 43.0001C9.50345 43.0391 9.40126 43.0577 9.29857 43.0546H3.40949C2.95473 43.0581 2.50424 42.9667 2.08683 42.7861C1.68722 42.6143 1.32201 42.3715 1.00884 42.0696C0.694817 41.7661 0.443509 41.4039 0.269214 41.0035C0.0890806 40.5938 -0.00263047 40.1507 6.68172e-05 39.7032V35.3884C-0.0028367 34.9447 0.0889195 34.5055 0.269214 34.1C0.445466 33.7044 0.696356 33.3465 1.00814 33.0458C1.32136 32.7426 1.68679 32.4984 2.08683 32.3251C2.50374 32.1455 2.95349 32.0548 3.4074 32.0587H9.29787C9.44921 32.0597 9.59694 32.105 9.72276 32.1891C9.84858 32.2732 9.94695 32.3924 10.0057 32.5319C10.0644 32.6713 10.0809 32.825 10.0531 32.9738C10.0254 33.1225 9.95454 33.2599 9.84944 33.3688C9.77868 33.4433 9.69296 33.502 9.59789 33.5411C9.50283 33.5801 9.40058 33.5986 9.29787 33.5953H3.40949C2.91717 33.5891 2.44212 33.7766 2.08683 34.1175C1.91721 34.2807 1.78031 34.4748 1.68346 34.6894C1.58413 34.9089 1.53357 35.1474 1.53525 35.3884V36.7866H9.29507C9.39708 36.7828 9.49879 36.8001 9.59382 36.8374C9.68884 36.8746 9.77515 36.9312 9.84734 37.0033C9.91952 37.0755 9.97603 37.1618 10.0133 37.2569C10.0506 37.3519 10.0679 37.4536 10.0641 37.5556C10.0657 37.6558 10.0474 37.7553 10.0102 37.8483C9.97295 37.9413 9.91761 38.026 9.84735 38.0974C9.77648 38.1718 9.69073 38.2304 9.59569 38.2694C9.50066 38.3084 9.39846 38.327 9.29577 38.3239H1.53735Z" fill="#DE143C"></path>
<path d="M25.577 38.3239V39.7032C25.5757 39.9474 25.6262 40.189 25.7252 40.4121C25.8199 40.6307 25.957 40.8284 26.1286 40.9937C26.2995 41.1582 26.5002 41.2885 26.72 41.3775C26.9512 41.4719 27.1988 41.5194 27.4485 41.5174H33.3369C33.437 41.5158 33.5365 41.5342 33.6295 41.5714C33.7225 41.6086 33.8072 41.6639 33.8787 41.7341C33.9531 41.8049 34.0118 41.8906 34.0508 41.9857C34.0898 42.0807 34.1084 42.1829 34.1052 42.2856C34.1041 42.4893 34.0227 42.6842 33.8787 42.8282C33.7347 42.9722 33.5398 43.0535 33.3362 43.0546H27.4457C26.9894 43.0575 26.5373 42.9669 26.1174 42.7883C25.7145 42.6193 25.3473 42.3755 25.0353 42.0696C24.7271 41.7644 24.4799 41.4033 24.3068 41.0056C24.1267 40.5959 24.035 40.1529 24.0377 39.7053V35.3885C24.0348 34.9448 24.1265 34.5055 24.3068 34.1001C24.661 33.2998 25.3082 32.6654 26.1153 32.3272C26.5352 32.1486 26.9873 32.058 27.4436 32.0609H33.3369C33.437 32.0595 33.5364 32.0779 33.6294 32.1151C33.7224 32.1523 33.8071 32.2075 33.8787 32.2776C34.0236 32.4226 34.1051 32.6192 34.1051 32.8243C34.1051 33.0293 34.0236 33.2259 33.8787 33.3709C33.8086 33.4438 33.7244 33.5014 33.6312 33.5404C33.5381 33.5793 33.4379 33.5988 33.3369 33.5974H27.4457C26.9543 33.592 26.4804 33.7795 26.1258 34.1197C25.956 34.2827 25.819 34.4768 25.7225 34.6915C25.6228 34.911 25.5722 35.1496 25.5742 35.3906V36.7888H33.3369C33.437 36.7872 33.5365 36.8056 33.6295 36.8428C33.7225 36.88 33.8072 36.9353 33.8787 37.0055C33.953 37.0763 34.0117 37.1621 34.0507 37.2571C34.0897 37.3522 34.1083 37.4544 34.1052 37.557C34.1041 37.7607 34.0227 37.9556 33.8787 38.0996C33.7347 38.2436 33.5398 38.3249 33.3362 38.326L25.577 38.3239Z" fill="#DE143C"></path>
<path d="M45.4216 31.9812C45.5246 31.9787 45.6271 31.9976 45.7225 32.0366C45.8178 32.0755 45.9042 32.1338 45.976 32.2077C46.049 32.2811 46.1064 32.3684 46.1449 32.4645C46.1833 32.5606 46.202 32.6635 46.1997 32.767V42.127C46.2029 42.3683 46.1122 42.6015 45.9466 42.7771C45.7803 42.9601 45.5506 43.0728 45.3042 43.0924C45.1597 43.0923 45.0168 43.0621 44.8847 43.0036C44.7501 42.9461 44.6328 42.8545 44.5443 42.738L37.7086 34.2462V42.3046C37.7105 42.4086 37.6914 42.512 37.6525 42.6085C37.6135 42.7049 37.5555 42.7926 37.4818 42.8661C37.4082 42.9397 37.3205 42.9976 37.224 43.0365C37.1275 43.0754 37.0241 43.0944 36.9201 43.0924C36.7175 43.0827 36.5266 42.9945 36.3881 42.8463C36.3179 42.7748 36.2627 42.6901 36.2255 42.5971C36.1883 42.5042 36.1699 42.4047 36.1713 42.3046V33.1633C36.1705 33.0093 36.2007 32.8566 36.26 32.7144C36.3193 32.5722 36.4066 32.4434 36.5167 32.3356C36.6334 32.2156 36.7744 32.122 36.9304 32.0611C37.0864 32.0003 37.2536 31.9737 37.4207 31.983C37.5878 31.9924 37.751 32.0375 37.8992 32.1153C38.0474 32.1931 38.1772 32.3019 38.2798 32.4342L44.6603 40.3926V32.7495C44.6581 32.6488 44.6761 32.5486 44.7133 32.455C44.7504 32.3614 44.8061 32.2762 44.8768 32.2045C44.9475 32.1327 45.032 32.0759 45.1251 32.0375C45.2182 31.999 45.3181 31.9796 45.4188 31.9805L45.4216 31.9812Z" fill="#DE143C"></path>
<path d="M57.647 32.2764C57.7863 32.4244 57.8638 32.6199 57.8638 32.8231C57.8638 33.0263 57.7863 33.2218 57.647 33.3698C57.5763 33.4443 57.4906 33.503 57.3955 33.542C57.3004 33.5811 57.1982 33.5996 57.0955 33.5963H53.6476V42.2649C53.6506 42.3676 53.632 42.4697 53.5929 42.5647C53.5539 42.6598 53.4954 42.7455 53.4211 42.8165C53.3496 42.8866 53.2649 42.9419 53.1719 42.9791C53.0789 43.0163 52.9795 43.0347 52.8793 43.0332C52.7773 43.037 52.6756 43.0197 52.5806 42.9824C52.4855 42.9452 52.3992 42.8886 52.327 42.8165C52.2549 42.7443 52.1983 42.658 52.1611 42.5629C52.1238 42.4679 52.1065 42.3662 52.1103 42.2642V33.5956H48.524C48.4213 33.5989 48.3191 33.5804 48.224 33.5413C48.1289 33.5023 48.0432 33.4436 47.9724 33.3691C47.8625 33.262 47.7874 33.1243 47.7569 32.9739C47.7264 32.8235 47.7419 32.6674 47.8015 32.5259C47.861 32.3845 47.9618 32.2643 48.0907 32.181C48.2196 32.0977 48.3706 32.0552 48.524 32.059H57.0948C57.1968 32.0557 57.2984 32.0733 57.3933 32.1107C57.4883 32.1481 57.5746 32.2045 57.647 32.2764Z" fill="#DE143C"></path>
<path d="M67.0057 32.0398C67.4053 32.0385 67.8009 32.1189 68.1683 32.2761C68.8859 32.5775 69.4581 33.1464 69.7636 33.8623C69.9218 34.2259 70.0023 34.6186 69.9999 35.0151V40.0583C70.0023 40.4548 69.9218 40.8475 69.7636 41.2111C69.4584 41.9271 68.8861 42.4958 68.1683 42.7966C67.8011 42.9544 67.4054 43.0351 67.0057 43.0336H61.7255C61.3289 43.0358 60.9363 42.9551 60.5727 42.7966C59.8602 42.4914 59.2924 41.9237 58.9872 41.2111C58.8287 40.8476 58.748 40.4549 58.7502 40.0583V35.0151C58.748 34.6186 58.8287 34.2259 58.9872 33.8623C59.2927 33.1498 59.8603 32.5819 60.5727 32.2761C60.9364 32.1182 61.329 32.0377 61.7255 32.0398H67.0057ZM68.4241 35.0151C68.4272 34.8268 68.3922 34.6399 68.3212 34.4654C68.2502 34.291 68.1447 34.1327 68.011 34.0001C67.882 33.8637 67.7261 33.7556 67.5532 33.6827C67.3803 33.6097 67.1941 33.5736 67.0064 33.5764H61.7255C61.3447 33.5786 60.9801 33.7309 60.7109 34.0003C60.4417 34.2696 60.2895 34.6343 60.2875 35.0151V40.0583C60.2897 40.439 60.4419 40.8035 60.7111 41.0727C60.9803 41.3419 61.3448 41.4941 61.7255 41.4963H67.0057C67.1935 41.4996 67.38 41.4636 67.5531 41.3906C67.7262 41.3177 67.8821 41.2094 68.011 41.0727C68.1447 40.9402 68.2503 40.782 68.3214 40.6077C68.3925 40.4334 68.4277 40.2465 68.4248 40.0583L68.4241 35.0151Z" fill="#DE143C"></path>
<path d="M22.0591 31.854C22.1895 31.8512 22.3184 31.8828 22.4327 31.9458C22.547 32.0088 22.6427 32.1008 22.7099 32.2127C22.7871 32.3209 22.8319 32.4489 22.8389 32.5816C22.846 32.7143 22.815 32.8463 22.7498 32.9621L17.9177 42.959H16.2399L11.2506 32.9817C11.1882 32.8635 11.1578 32.7311 11.1622 32.5975C11.1666 32.464 11.2057 32.3339 11.2757 32.2201C11.3457 32.1063 11.4442 32.0126 11.5613 31.9485C11.6785 31.8843 11.8104 31.8517 11.944 31.854C12.086 31.8535 12.2255 31.8909 12.3481 31.9624C12.4755 32.038 12.5756 32.152 12.634 32.2882L17.069 41.1609L21.3488 32.3057C21.4007 32.1666 21.4956 32.0476 21.6196 31.966C21.7437 31.8845 21.8905 31.8445 22.0388 31.852L22.0591 31.854Z" fill="#DE143C"></path>
<path d="M29.4741 2.96869C30.3172 1.6691 31.2693 0.923875 32.7017 0.925273C36.8962 0.925273 41.0907 0.939255 45.2852 0.907796C45.9445 0.902903 46.1458 1.11752 46.0668 1.73062C46.0381 1.95293 46.0668 2.18153 46.0626 2.40733C46.0353 5.89226 44.7266 7.20374 41.2487 7.20793C37.4408 7.21283 33.6329 7.19814 29.8257 7.20793C29.2483 7.20793 28.6569 7.23589 28.0962 7.35963C26.6036 7.6882 25.6899 8.83889 25.6669 10.323C25.6466 11.9393 26.5442 13.2508 27.9158 13.687C28.545 13.887 28.8575 13.8506 28.8079 13.0579C28.747 12.0931 28.833 11.1207 28.7841 10.1553C28.754 9.55475 28.9428 9.31637 29.5398 9.39956C29.6996 9.42403 29.8623 9.42403 30.0222 9.39956C30.7946 9.27092 31.0631 9.5205 31.047 10.3629C30.9862 13.492 31.0128 16.6225 31.0142 19.7523C31.0142 22.0012 31.5734 22.5633 33.8168 22.5654C36.9473 22.5689 40.0778 22.5339 43.2068 22.5773C44.0667 22.5892 44.0926 22.3137 43.8283 21.6391C43.4089 20.5709 42.5889 20.2172 41.5374 20.2144C39.0851 20.2067 36.632 20.1675 34.181 20.2263C33.3421 20.2465 33.1911 19.9844 33.1946 19.2035C33.2079 16.2037 33.1554 13.2026 33.0897 10.2028C33.0757 9.57363 33.2386 9.38208 33.8895 9.38907C36.9871 9.42472 40.0847 9.41983 43.1824 9.38907C43.7745 9.38348 43.9828 9.53658 43.9353 10.1406C43.8829 10.8145 43.957 11.4968 43.9199 12.1721C43.806 14.2694 42.4749 15.6494 40.3833 15.8318C39.7744 15.8849 39.1522 15.7983 38.5468 15.8696C37.6981 15.9702 37.4345 15.6843 37.4744 14.8174C37.5072 14.1184 37.6415 13.8094 38.3951 13.9086C38.8697 13.9709 39.3626 13.9331 39.8443 13.8947C40.4469 13.8457 40.9817 13.6038 41.3277 13.0928C41.5983 12.6922 41.9066 12.1784 41.7297 11.752C41.5626 11.3486 40.9873 11.587 40.5979 11.5814C39.0494 11.5583 37.4995 11.5898 35.9511 11.5611C35.4435 11.5513 35.2793 11.7142 35.2862 12.219C35.3093 13.9611 35.317 15.7046 35.2814 17.446C35.2688 18.0423 35.5225 18.1283 36.0301 18.122C37.8374 18.0996 39.6446 18.0996 41.4515 18.122C44.4764 18.1528 46.0172 19.697 46.0787 22.7297C46.1157 24.5732 46.1157 24.5732 44.3016 24.5738C40.5587 24.5738 36.8158 24.592 33.073 24.5704C30.9303 24.5578 29.3874 23.477 28.9435 21.7293C28.8557 21.3528 28.8121 20.9673 28.8134 20.5807C28.7946 19.3545 28.7638 18.1269 28.8134 16.9028C28.8393 16.2736 28.6673 15.9751 28.0228 15.8738C27.157 15.7422 26.3333 15.4125 25.6158 14.9104C23.7738 13.6157 23.067 11.1543 23.8339 8.74312C24.5448 6.50955 26.2576 5.22463 28.596 5.21764C32.9199 5.20506 37.2437 5.21275 41.5675 5.21275C42.5777 5.21275 43.3851 4.93312 43.7822 3.87051C44.0485 3.15605 43.8584 2.99176 43.1418 2.99386C39.1403 3.00714 35.1394 2.98337 31.1379 2.97289C30.636 2.9673 30.1333 2.96869 29.4741 2.96869Z" fill="#DE143C"></path>
</g>
<defs>
<clipPath id="SvgjsClipPath1000">
<rect width="70" height="44" fill="white"></rect>
</clipPath>
</defs>
</svg><style>@media (prefers-color-scheme: light) { :root { filter: none; } }
</style></svg>