<svg width="48" height="48" viewBox="0 0 48 48" fill="none" xmlns="http://www.w3.org/2000/svg">
<circle cx="24" cy="24" r="24" fill="#FD4C5C"/>
<path opacity="0.4" d="M15 18C15 15.7909 16.7909 14 19 14H29C31.2091 14 33 15.7909 33 18V30C33 32.2091 31.2091 34 29 34H19C16.7909 34 15 32.2091 15 30V18Z" fill="white"/>
<path fill-rule="evenodd" clip-rule="evenodd" d="M24 17.25C22.4812 17.25 21.25 18.4812 21.25 20V22V24C21.25 24.4142 21.5858 24.75 22 24.75C22.4142 24.75 22.75 24.4142 22.75 24V22.75H25.25V24C25.25 24.4142 25.5858 24.75 26 24.75C26.4142 24.75 26.75 24.4142 26.75 24V22V20C26.75 18.4812 25.5188 17.25 24 17.25ZM25.25 21.25V20C25.25 19.3096 24.6904 18.75 24 18.75C23.3096 18.75 22.75 19.3096 22.75 20V21.25H25.25Z" fill="white"/>
<path fill-rule="evenodd" clip-rule="evenodd" d="M19.25 27C19.25 26.5858 19.5858 26.25 20 26.25L28 26.25C28.4142 26.25 28.75 26.5858 28.75 27C28.75 27.4142 28.4142 27.75 28 27.75L20 27.75C19.5858 27.75 19.25 27.4142 19.25 27Z" fill="white"/>
<path fill-rule="evenodd" clip-rule="evenodd" d="M19.25 30C19.25 29.5858 19.5858 29.25 20 29.25H24C24.4142 29.25 24.75 29.5858 24.75 30C24.75 30.4142 24.4142 30.75 24 30.75H20C19.5858 30.75 19.25 30.4142 19.25 30Z" fill="white"/>
</svg>
