<svg width="48" height="48" viewBox="0 0 48 48" fill="none" xmlns="http://www.w3.org/2000/svg">
<circle cx="24" cy="24" r="24" fill="#FD4C5C"/>
<rect width="24" height="24" transform="translate(12 12)" fill="#FD4C5C"/>
<g opacity="0.4">
<path d="M14 22.1198L14 30.2476C14 32.4568 15.7909 34.2476 18 34.2476H30C32.2091 34.2476 34 32.4568 34 30.2476V22.1199L26.4029 24.5843C26.4029 24.5843 25.5013 27.0227 24 27.0227C22.4987 27.0227 21.3907 24.5843 21.3907 24.5843L14 22.1198Z" fill="white"/>
</g>
<path fill-rule="evenodd" clip-rule="evenodd" d="M30 18.2476H18C15.7909 18.2476 14 20.0385 14 22.2476V22.5951C14 22.5951 16.9139 24.5361 21.4982 25.1047V25.5618C21.4982 26.6663 22.3936 27.5618 23.4982 27.5618H24.5016C25.6062 27.5618 26.5016 26.6663 26.5016 25.5618V25.1048C31.086 24.5361 34 22.5951 34 22.5951V22.2476C34 20.0385 32.2091 18.2476 30 18.2476ZM23.0751 24.342C22.9647 24.342 22.8751 24.4315 22.8751 24.542V25.5308C22.8751 25.9726 23.2333 26.3308 23.6751 26.3308H24.3248C24.7666 26.3308 25.1248 25.9726 25.1248 25.5308V24.542C25.1248 24.4315 25.0352 24.342 24.9248 24.342H23.0751Z" fill="white"/>
<path fill-rule="evenodd" clip-rule="evenodd" d="M22.9999 14.9976C21.7572 14.9976 20.7499 16.005 20.7499 17.2476V18.2476C20.7499 18.6618 20.4141 18.9976 19.9999 18.9976C19.5857 18.9976 19.2499 18.6618 19.2499 18.2476V17.2476C19.2499 15.1766 20.9288 13.4976 22.9999 13.4976H24.9999C27.0709 13.4976 28.7499 15.1766 28.7499 17.2476V18.2476C28.7499 18.6618 28.4141 18.9976 27.9999 18.9976C27.5857 18.9976 27.2499 18.6618 27.2499 18.2476V17.2476C27.2499 16.005 26.2425 14.9976 24.9999 14.9976H22.9999Z" fill="white"/>
</svg>
