<svg width="48" height="48" viewBox="0 0 48 48" fill="none" xmlns="http://www.w3.org/2000/svg">
<circle cx="24" cy="24" r="24" fill="#FD4C5C"/>
<path opacity="0.4" d="M33 29.9668V22.1503C33 20.9394 32.4604 19.7925 31.5301 19.0265L26.5301 14.9093C25.0577 13.6969 22.9423 13.6969 21.4699 14.9093L16.4699 19.0265C15.5396 19.7925 15 20.9394 15 22.1503V29.9668C15 32.1943 16.7909 34 19 34H29C31.2091 34 33 32.1943 33 29.9668Z" fill="white"/>
<path fill-rule="evenodd" clip-rule="evenodd" d="M19.25 23C19.25 22.5858 19.5858 22.25 20 22.25H22C22.4142 22.25 22.75 22.5858 22.75 23C22.75 23.4142 22.4142 23.75 22 23.75H20C19.5858 23.75 19.25 23.4142 19.25 23Z" fill="white"/>
<path fill-rule="evenodd" clip-rule="evenodd" d="M23.25 23C23.25 22.5858 23.5858 22.25 24 22.25H28C28.4142 22.25 28.75 22.5858 28.75 23C28.75 23.4142 28.4142 23.75 28 23.75H24C23.5858 23.75 23.25 23.4142 23.25 23Z" fill="white"/>
<path fill-rule="evenodd" clip-rule="evenodd" d="M25.25 28C25.25 27.5858 25.5858 27.25 26 27.25H28C28.4142 27.25 28.75 27.5858 28.75 28C28.75 28.4142 28.4142 28.75 28 28.75H26C25.5858 28.75 25.25 28.4142 25.25 28Z" fill="white"/>
<path fill-rule="evenodd" clip-rule="evenodd" d="M19.25 28C19.25 27.5858 19.5858 27.25 20 27.25H24C24.4142 27.25 24.75 27.5858 24.75 28C24.75 28.4142 24.4142 28.75 24 28.75H20C19.5858 28.75 19.25 28.4142 19.25 28Z" fill="white"/>
<path fill-rule="evenodd" clip-rule="evenodd" d="M22 21.25C22.4142 21.25 22.75 21.5858 22.75 22V24C22.75 24.4142 22.4142 24.75 22 24.75C21.5858 24.75 21.25 24.4142 21.25 24V22C21.25 21.5858 21.5858 21.25 22 21.25Z" fill="white"/>
<path fill-rule="evenodd" clip-rule="evenodd" d="M26 26.25C26.4142 26.25 26.75 26.5858 26.75 27V29C26.75 29.4142 26.4142 29.75 26 29.75C25.5858 29.75 25.25 29.4142 25.25 29V27C25.25 26.5858 25.5858 26.25 26 26.25Z" fill="white"/>
</svg>
