<svg width="134" height="81" viewBox="0 0 134 81" fill="none" xmlns="http://www.w3.org/2000/svg">
<path d="M2.94293 71.6252V74.2655C2.94096 74.7328 3.03763 75.1952 3.22663 75.6225C3.40717 76.0404 3.66818 76.4188 3.99479 76.7359C4.32187 77.0508 4.70616 77.3001 5.12694 77.4706C5.5699 77.6514 6.04434 77.7423 6.52273 77.7383H17.7988C17.9941 77.7309 18.1887 77.764 18.3707 77.8354C18.5526 77.9068 18.7178 78.015 18.856 78.1531C18.9941 78.2913 19.1023 78.4565 19.1737 78.6384C19.2451 78.8204 19.2782 79.015 19.2708 79.2103C19.274 79.4021 19.2389 79.5925 19.1677 79.7706C19.0964 79.9487 18.9905 80.1108 18.856 80.2475C18.7203 80.3899 18.5562 80.5021 18.3743 80.5768C18.1923 80.6515 17.9967 80.687 17.8001 80.6811H6.52674C5.6562 80.6878 4.79383 80.5128 3.99479 80.1672C3.22982 79.8382 2.5307 79.3734 1.93121 78.7955C1.33008 78.2146 0.849003 77.5211 0.515352 76.7547C0.170526 75.9704 -0.00503548 75.1222 0.000127907 74.2655V66.0059C-0.00543025 65.1565 0.170217 64.3156 0.515352 63.5395C0.852749 62.7821 1.33302 62.0969 1.92988 61.5214C2.52946 60.9409 3.229 60.4735 3.99479 60.1417C4.79288 59.798 5.65382 59.6244 6.52273 59.6318H17.7988C18.0885 59.6336 18.3713 59.7204 18.6121 59.8814C18.853 60.0424 19.0413 60.2705 19.1537 60.5376C19.2661 60.8046 19.2977 61.0987 19.2446 61.3835C19.1914 61.6683 19.0558 61.9312 18.8546 62.1397C18.7192 62.2824 18.5551 62.3947 18.3731 62.4695C18.1911 62.5442 17.9954 62.5796 17.7988 62.5733H6.52674C5.58429 62.5614 4.67492 62.9204 3.99479 63.573C3.67009 63.8854 3.40801 64.2569 3.22262 64.6676C3.03248 65.088 2.93569 65.5445 2.93891 66.0059V68.6824H17.7934C17.9887 68.675 18.1834 68.7081 18.3653 68.7795C18.5472 68.8509 18.7124 68.9591 18.8506 69.0972C18.9888 69.2354 19.097 69.4006 19.1684 69.5826C19.2397 69.7645 19.2728 69.9592 19.2655 70.1544C19.2686 70.3462 19.2335 70.5366 19.1623 70.7147C19.0911 70.8928 18.9851 71.0549 18.8506 71.1916C18.715 71.334 18.5508 71.4462 18.3689 71.5209C18.187 71.5956 17.9913 71.6311 17.7948 71.6252H2.94293Z" fill="white"/>
<path d="M48.9609 71.625V74.2653C48.9582 74.7326 49.0549 75.1952 49.2446 75.6223C49.4258 76.0408 49.6882 76.4193 50.0167 76.7357C50.3438 77.0506 50.7281 77.2999 51.1489 77.4704C51.5914 77.651 52.0654 77.7419 52.5433 77.7381H63.8154C64.0071 77.7352 64.1975 77.7703 64.3755 77.8416C64.5535 77.9128 64.7157 78.0186 64.8525 78.1529C64.995 78.2885 65.1073 78.4526 65.1821 78.6346C65.2568 78.8165 65.2922 79.0122 65.2861 79.2088C65.284 79.5986 65.1282 79.9718 64.8526 80.2474C64.577 80.523 64.2038 80.6788 63.814 80.6809H52.538C51.6645 80.6864 50.7991 80.5129 49.9953 80.171C49.224 79.8475 48.521 79.3807 47.9237 78.7953C47.3339 78.211 46.8606 77.5197 46.5293 76.7585C46.1844 75.9742 46.0089 75.126 46.014 74.2693V66.0057C46.0085 65.1563 46.1841 64.3154 46.5293 63.5393C47.2074 62.0073 48.4461 60.793 49.9913 60.1455C50.7951 59.8036 51.6605 59.6301 52.534 59.6356H63.8154C64.007 59.633 64.1974 59.6683 64.3753 59.7395C64.5533 59.8107 64.7155 59.9164 64.8525 60.0505C65.13 60.328 65.2859 60.7045 65.2859 61.097C65.2859 61.4895 65.13 61.8659 64.8525 62.1435C64.7185 62.2829 64.5573 62.3933 64.3789 62.4679C64.2005 62.5424 64.0087 62.5796 63.8154 62.5771H52.538C51.5974 62.5666 50.6902 62.9255 50.0114 63.5768C49.6863 63.8888 49.4241 64.2605 49.2392 64.6714C49.0485 65.0916 48.9516 65.5483 48.9555 66.0097V68.6862H63.8154C64.0071 68.6833 64.1975 68.7185 64.3755 68.7897C64.5535 68.8609 64.7157 68.9667 64.8525 69.101C64.9949 69.2367 65.1071 69.4008 65.1818 69.5828C65.2565 69.7647 65.2921 69.9603 65.2861 70.1569C65.284 70.5467 65.1282 70.9199 64.8526 71.1955C64.577 71.4711 64.2038 71.6269 63.814 71.629L48.9609 71.625Z" fill="white"/>
<path d="M86.9519 59.4833C87.1492 59.4786 87.3452 59.5147 87.5278 59.5893C87.7105 59.6639 87.8757 59.7754 88.0132 59.9169C88.1529 60.0574 88.2629 60.2246 88.3365 60.4085C88.4101 60.5925 88.4458 60.7894 88.4414 60.9875V78.9053C88.4476 79.3673 88.2739 79.8136 87.957 80.1498C87.6386 80.5 87.1989 80.7159 86.7271 80.7534C86.4506 80.7532 86.1771 80.6953 85.9242 80.5834C85.6666 80.4732 85.442 80.298 85.2725 80.0749L72.1871 63.8192V79.2452C72.1907 79.4444 72.1542 79.6422 72.0796 79.8269C72.005 80.0117 71.8939 80.1794 71.753 80.3202C71.6121 80.461 71.4442 80.572 71.2594 80.6464C71.0746 80.7208 70.8767 80.7572 70.6776 80.7534C70.2897 80.7349 69.9244 80.5659 69.6592 80.2823C69.5249 80.1454 69.4191 79.9833 69.3479 79.8053C69.2767 79.6273 69.2415 79.4369 69.2443 79.2452V61.7463C69.2427 61.4514 69.3004 61.1591 69.414 60.887C69.5276 60.6148 69.6947 60.3682 69.9054 60.1618C70.1287 59.932 70.3988 59.7528 70.6974 59.6364C70.9959 59.5199 71.316 59.4689 71.6359 59.4868C71.9559 59.5047 72.2683 59.591 72.552 59.7401C72.8357 59.8891 73.0841 60.0972 73.2804 60.3505L85.4946 75.5851V60.9541C85.4903 60.7613 85.5248 60.5696 85.5959 60.3903C85.6671 60.2111 85.7736 60.048 85.909 59.9107C86.0445 59.7734 86.2061 59.6647 86.3843 59.5911C86.5625 59.5174 86.7537 59.4803 86.9466 59.482L86.9519 59.4833Z" fill="white"/>
<path d="M110.354 60.0488C110.621 60.332 110.769 60.7063 110.769 61.0953C110.769 61.4842 110.621 61.8585 110.354 62.1418C110.219 62.2844 110.055 62.3968 109.873 62.4716C109.691 62.5463 109.495 62.5817 109.298 62.5754H102.698V79.1696C102.704 79.3662 102.668 79.5617 102.594 79.7436C102.519 79.9255 102.407 80.0897 102.265 80.2255C102.128 80.3598 101.966 80.4656 101.788 80.5369C101.61 80.6081 101.419 80.6432 101.228 80.6404C101.032 80.6477 100.838 80.6146 100.656 80.5432C100.474 80.4718 100.309 80.3637 100.17 80.2255C100.032 80.0873 99.924 79.9221 99.8526 79.7402C99.7812 79.5583 99.7481 79.3636 99.7555 79.1683V62.574H92.8903C92.6937 62.5803 92.4979 62.545 92.3159 62.4702C92.134 62.3955 91.9699 62.2831 91.8344 62.1405C91.6239 61.9355 91.4801 61.6719 91.4217 61.3839C91.3633 61.096 91.3931 60.7972 91.5071 60.5264C91.6211 60.2557 91.814 60.0256 92.0608 59.8661C92.3075 59.7067 92.5966 59.6253 92.8903 59.6326H109.297C109.492 59.6263 109.687 59.66 109.869 59.7316C110.05 59.8031 110.216 59.9111 110.354 60.0488Z" fill="white"/>
<path d="M128.268 59.5953C129.033 59.5927 129.791 59.7467 130.494 60.0476C131.868 60.6246 132.963 61.7136 133.548 63.0841C133.851 63.7801 134.005 64.5318 134 65.2909V74.945C134.005 75.704 133.851 76.4557 133.548 77.1517C132.963 78.5223 131.868 79.6111 130.494 80.1869C129.791 80.4889 129.033 80.6433 128.268 80.6405H118.16C117.401 80.6448 116.65 80.4902 115.954 80.1869C114.59 79.6026 113.503 78.5158 112.919 77.1517C112.615 76.4558 112.461 75.7041 112.465 74.945V65.2909C112.461 64.5317 112.615 63.78 112.919 63.0841C113.503 61.7201 114.59 60.633 115.954 60.0476C116.65 59.7453 117.401 59.5912 118.16 59.5953H128.268ZM130.984 65.2909C130.989 64.9304 130.922 64.5725 130.786 64.2386C130.651 63.9047 130.449 63.6017 130.193 63.3477C129.946 63.0867 129.647 62.8798 129.316 62.7402C128.985 62.6005 128.629 62.5313 128.27 62.5368H118.16C117.431 62.541 116.734 62.8325 116.218 63.3482C115.703 63.8638 115.412 64.5618 115.408 65.2909V74.945C115.412 75.6737 115.703 76.3715 116.219 76.8868C116.734 77.4021 117.432 77.6935 118.16 77.6977H128.268C128.628 77.704 128.985 77.635 129.316 77.4954C129.647 77.3557 129.946 77.1484 130.193 76.8867C130.449 76.6331 130.651 76.3303 130.787 75.9967C130.923 75.663 130.99 75.3053 130.985 74.945L130.984 65.2909Z" fill="white"/>
<path d="M42.2278 59.2401C42.4775 59.2345 42.7243 59.2951 42.9431 59.4157C43.1619 59.5362 43.3449 59.7125 43.4737 59.9266C43.6215 60.1337 43.7071 60.3787 43.7206 60.6328C43.7341 60.8869 43.6749 61.1395 43.55 61.3612L34.3 80.4981H31.0882L21.5372 61.3987C21.4179 61.1724 21.3595 60.919 21.368 60.6633C21.3764 60.4077 21.4513 60.1586 21.5853 59.9408C21.7193 59.7229 21.9078 59.5437 22.1321 59.4208C22.3565 59.2979 22.609 59.2356 22.8647 59.2401C23.1365 59.239 23.4035 59.3106 23.6382 59.4475C23.8821 59.5921 24.0738 59.8105 24.1856 60.0711L32.6754 77.0561L40.8681 60.1046C40.9675 59.8383 41.1491 59.6106 41.3866 59.4544C41.6241 59.2983 41.9051 59.2218 42.189 59.2361L42.2278 59.2401Z" fill="white"/>
<path d="M56.3025 3.92233C57.905 1.44806 59.709 0.0368049 62.4379 0.0368049C70.4047 0.0459689 78.3807 0.0642968 86.3475 0.000148992C87.602 -0.00901499 87.9866 0.403364 87.831 1.56719C87.776 1.98873 87.8218 2.4286 87.8218 2.85015C87.7669 9.4757 85.2852 11.9683 78.6737 11.9775C71.4395 11.9866 64.2052 11.9591 56.971 11.9775C55.8721 11.9775 54.7549 12.0325 53.6835 12.2616C50.8448 12.8847 49.1141 15.0749 49.0683 17.8974C49.0225 20.9673 50.7349 23.4599 53.3356 24.2939C54.5352 24.6696 55.1212 24.6054 55.0297 23.0934C54.9106 21.2606 55.0754 19.4095 54.9839 17.5767C54.9289 16.4403 55.2861 15.9821 56.4216 16.1379C56.7237 16.1837 57.0443 16.1837 57.3373 16.1379C58.8024 15.8905 59.3153 16.367 59.2878 17.9707C59.1779 23.9181 59.2237 29.8747 59.2237 35.8221C59.2237 40.0926 60.2859 41.1647 64.5532 41.1739C70.4963 41.1831 76.4485 41.1098 82.3915 41.1922C84.0215 41.2106 84.0765 40.6882 83.5728 39.4053C82.7762 37.3709 81.2194 36.7019 79.2231 36.6927C74.5621 36.6744 69.901 36.6011 65.2492 36.7202C63.665 36.7569 63.3719 36.262 63.3719 34.7774C63.3994 29.0775 63.2987 23.3683 63.1705 17.6591C63.143 16.4678 63.4543 16.1013 64.6906 16.1104C70.5787 16.1746 76.4576 16.1654 82.3458 16.1104C83.4721 16.1013 83.8659 16.3945 83.7743 17.54C83.6736 18.823 83.8109 20.1151 83.7468 21.398C83.5271 25.3844 80.9996 28.0053 77.0254 28.3535C75.8716 28.4543 74.6903 28.2894 73.5365 28.4268C71.9248 28.6193 71.4212 28.0786 71.5036 26.4291C71.5677 25.0911 71.8241 24.5138 73.2526 24.6971C74.15 24.8162 75.0932 24.7429 76.0089 24.6696C77.1536 24.5779 78.1701 24.1197 78.8294 23.1484C79.3422 22.3878 79.9282 21.4072 79.5894 20.6008C79.2689 19.831 78.1792 20.2892 77.4375 20.2709C74.498 20.225 71.5494 20.2892 68.6099 20.2342C67.6484 20.2159 67.337 20.5275 67.3462 21.4897C67.392 24.7979 67.4011 28.1152 67.337 31.4326C67.3095 32.5689 67.7949 32.7339 68.7564 32.7156C72.1904 32.6697 75.6243 32.6789 79.0583 32.7156C84.8091 32.7705 87.7302 35.7122 87.8493 41.4763C87.9225 44.9861 87.9225 44.9861 84.4702 44.9861C77.3551 44.9861 70.249 45.0228 63.1338 44.977C59.0589 44.9495 56.1285 42.8967 55.2861 39.5794C55.1029 38.8737 55.048 38.1223 55.0388 37.3983C55.0022 35.0707 54.9472 32.7339 55.0388 30.4062C55.0846 29.2149 54.7641 28.6376 53.537 28.4451C51.8887 28.1885 50.3411 27.5837 48.9675 26.6123C45.4695 24.1472 44.1234 19.4736 45.5794 14.8825C46.9346 10.6304 50.1855 8.19275 54.6267 8.18358C62.8408 8.15609 71.0549 8.17442 79.2689 8.17442C81.1919 8.17442 82.7212 7.65207 83.4721 5.61767C83.9758 4.2614 83.6186 3.94982 82.2542 3.94982C74.6537 3.97732 67.0531 3.9315 59.4526 3.91317C58.5186 3.91317 57.5571 3.92233 56.3025 3.92233Z" fill="#DE143C"/>
</svg>
