<svg width="61" height="62" viewBox="0 0 61 62" fill="none" xmlns="http://www.w3.org/2000/svg">
<circle cx="30.625" cy="31" r="30" fill="#4A1FF5" stroke="white" stroke-width="0.25"/>
<path d="M25.7827 41.0019H22.7821C22.2516 41.0019 21.7428 40.7911 21.3676 40.416C20.9925 40.0409 20.7817 39.532 20.7817 39.0015V32.0002C20.7817 31.4696 20.9925 30.9608 21.3676 30.5857C21.7428 30.2105 22.2516 29.9998 22.7821 29.9998H25.7827M25.7827 41.0019V29.9998M25.7827 41.0019H37.0649C37.5473 41.0074 38.0154 40.8383 38.383 40.5258C38.7506 40.2134 38.9929 39.7786 39.0653 39.3016L40.4455 30.2998C40.489 30.0131 40.4697 29.7204 40.3889 29.4419C40.308 29.1634 40.1676 28.9058 39.9773 28.687C39.787 28.4682 39.5514 28.2934 39.2869 28.1746C39.0223 28.0559 38.7351 27.9961 38.4451 27.9994H32.784V23.9986C32.784 23.2028 32.4679 22.4396 31.9052 21.8769C31.3425 21.3142 30.5793 20.998 29.7835 20.998L25.7827 29.9998" stroke="white" stroke-width="2" stroke-linecap="round" stroke-linejoin="round"/>
</svg>
