<svg width="17" height="13" viewBox="0 0 17 13" fill="none" xmlns="http://www.w3.org/2000/svg">
<path fill-rule="evenodd" clip-rule="evenodd" d="M16.375 6.18548C16.375 5.98015 16.2934 5.78324 16.1482 5.63805C16.0031 5.49286 15.8061 5.41129 15.6008 5.41129H1.14919C0.943865 5.41129 0.746945 5.49286 0.601756 5.63805C0.456566 5.78324 0.375 5.98015 0.375 6.18548C0.375 6.39081 0.456566 6.58773 0.601756 6.73292C0.746945 6.87811 0.943865 6.95968 1.14919 6.95968H15.6008C15.8061 6.95968 16.0031 6.87811 16.1482 6.73292C16.2934 6.58773 16.375 6.39081 16.375 6.18548ZM16.375 1.02419C16.375 0.818865 16.2934 0.621945 16.1482 0.476756C16.0031 0.331566 15.8061 0.25 15.6008 0.25H1.14919C0.943865 0.25 0.746945 0.331566 0.601756 0.476756C0.456566 0.621945 0.375 0.818865 0.375 1.02419C0.375 1.22952 0.456566 1.42644 0.601756 1.57163C0.746945 1.71682 0.943865 1.79839 1.14919 1.79839H15.6008C15.8061 1.79839 16.0031 1.71682 16.1482 1.57163C16.2934 1.42644 16.375 1.22952 16.375 1.02419ZM16.375 11.3468C16.375 11.1414 16.2934 10.9445 16.1482 10.7993C16.0031 10.6541 15.8061 10.5726 15.6008 10.5726H1.14919C0.943865 10.5726 0.746945 10.6541 0.601756 10.7993C0.456566 10.9445 0.375 11.1414 0.375 11.3468C0.375 11.5521 0.456566 11.749 0.601756 11.8942C0.746945 12.0394 0.943865 12.121 1.14919 12.121H15.6008C15.8061 12.121 16.0031 12.0394 16.1482 11.8942C16.2934 11.749 16.375 11.5521 16.375 11.3468Z" fill="white"/>
</svg>
