<svg width="16" height="15" viewBox="0 0 16 15" fill="none" xmlns="http://www.w3.org/2000/svg">
<path fill-rule="evenodd" clip-rule="evenodd" d="M0.09552 7.5C0.09552 7.21589 0.197096 6.94342 0.377902 6.74252C0.558708 6.54163 0.803933 6.42877 1.05963 6.42877H12.2298L8.08993 1.83102C7.9089 1.62987 7.80719 1.35706 7.80719 1.07259C7.80719 0.788121 7.9089 0.515303 8.08993 0.314154C8.27097 0.113005 8.5165 0 8.77252 0C9.02854 0 9.27408 0.113005 9.45511 0.314154L15.2398 6.74157C15.3296 6.84107 15.4008 6.95929 15.4494 7.08943C15.498 7.21958 15.523 7.3591 15.523 7.5C15.523 7.64091 15.498 7.78042 15.4494 7.91057C15.4008 8.04071 15.3296 8.15893 15.2398 8.25844L9.45511 14.6858C9.27408 14.887 9.02854 15 8.77252 15C8.5165 15 8.27097 14.887 8.08993 14.6858C7.9089 14.4847 7.80719 14.2119 7.80719 13.9274C7.80719 13.6429 7.9089 13.3701 8.08993 13.169L12.2298 8.57124H1.05963C0.803933 8.57124 0.558708 8.45837 0.377902 8.25748C0.197096 8.05658 0.09552 7.78411 0.09552 7.5Z" fill="white"/>
</svg>
