<svg width="16" height="15" viewBox="0 0 16 15" fill="none" xmlns="http://www.w3.org/2000/svg">
<path fill-rule="evenodd" clip-rule="evenodd" d="M15.902 7.5C15.902 7.78411 15.8005 8.05658 15.6197 8.25747C15.4389 8.45837 15.1936 8.57123 14.9379 8.57123L3.76773 8.57123L7.90762 13.169C8.08866 13.3701 8.19036 13.6429 8.19036 13.9274C8.19036 14.2119 8.08866 14.4847 7.90762 14.6858C7.72659 14.887 7.48105 15 7.22503 15C6.96901 15 6.72348 14.887 6.54244 14.6858L0.75777 8.25843C0.667985 8.15892 0.596751 8.04071 0.548148 7.91057C0.499544 7.78042 0.474526 7.6409 0.474526 7.5C0.474526 7.35909 0.499544 7.21957 0.548148 7.08943C0.596751 6.95928 0.667985 6.84107 0.75777 6.74156L6.54244 0.314147C6.72348 0.112998 6.96901 -5.36442e-06 7.22503 -5.36442e-06C7.48105 -5.36442e-06 7.72659 0.112998 7.90762 0.314147C8.08866 0.515297 8.19036 0.788114 8.19036 1.07258C8.19036 1.35705 8.08866 1.62987 7.90762 1.83102L3.76773 6.42876L14.9379 6.42876C15.1936 6.42876 15.4389 6.54162 15.6197 6.74252C15.8005 6.94341 15.902 7.21589 15.902 7.5Z" fill="white"/>
</svg>
